<svg width="512" height="512" viewBox="0 0 512 512" fill="none" xmlns="http://www.w3.org/2000/svg">
<rect width="512" height="512" rx="16" fill="black"/>
<path d="M174.124 181.777H64V208.992H110.183V330.223H143.583V208.992H154.879C159.827 198.911 166.26 189.798 174.124 181.777Z" fill="white"/>
<path fill-rule="evenodd" clip-rule="evenodd" d="M255.947 330.223C244.628 330.223 234.127 328.378 224.445 324.687C214.898 320.996 206.58 315.802 199.488 309.104C192.533 302.406 187.078 294.547 183.124 285.525C179.305 276.504 177.396 266.662 177.396 256C177.396 245.338 179.305 235.497 183.124 226.475C187.078 217.453 192.601 209.594 199.693 202.896C206.784 196.198 215.103 191.004 224.649 187.313C234.195 183.623 244.56 181.777 255.742 181.777C267.061 181.777 277.425 183.623 286.835 187.313C296.381 191.004 304.632 196.198 311.587 202.896C318.678 209.594 324.201 217.453 328.156 226.475C332.111 235.36 334.088 245.202 334.088 256C334.088 266.662 332.111 276.572 328.156 285.73C324.201 294.752 318.678 302.611 311.587 309.309C304.632 315.87 296.381 320.996 286.835 324.687C277.425 328.378 267.129 330.223 255.947 330.223ZM255.742 301.928C262.152 301.928 268.016 300.835 273.334 298.647C278.789 296.46 283.562 293.317 287.653 289.216C291.745 285.115 294.881 280.263 297.063 274.658C299.381 269.054 300.541 262.835 300.541 256C300.541 249.166 299.381 242.946 297.063 237.342C294.881 231.738 291.745 226.885 287.653 222.784C283.699 218.684 278.994 215.54 273.539 213.353C268.084 211.166 262.152 210.072 255.742 210.072C249.333 210.072 243.4 211.166 237.945 213.353C232.627 215.54 227.922 218.684 223.831 222.784C219.74 226.885 216.535 231.738 214.217 237.342C212.035 242.946 210.944 249.166 210.944 256C210.944 262.698 212.035 268.917 214.217 274.658C216.535 280.263 219.671 285.115 223.626 289.216C227.717 293.317 232.491 296.46 237.945 298.647C243.4 300.835 249.333 301.928 255.742 301.928Z" fill="white"/>
<path d="M380.271 208.992L356.068 208.321C351.166 198.506 344.844 189.619 337.155 181.777H382.127C395.047 181.777 406.181 183.908 415.527 188.169C424.874 192.292 432.09 198.271 437.175 206.106C442.261 213.941 444.804 223.287 444.804 234.146C444.804 244.867 442.261 254.145 437.175 261.979C432.09 269.676 424.874 275.587 415.527 279.71C415.204 279.853 414.882 279.993 414.559 280.13L448 330.223H411.404L383.944 285.895H383.922L367.468 259.299H380.271C390.58 259.299 398.277 257.1 403.363 252.701C408.449 248.165 410.991 241.98 410.991 234.146C410.991 226.174 408.449 219.988 403.363 215.59C398.277 211.192 390.58 208.992 380.271 208.992Z" fill="white"/>
</svg>
