<svg width="24" height="24" viewBox="0 0 24 24" fill="none" xmlns="http://www.w3.org/2000/svg">
<path d="M11.9999 13.7578C12.2511 13.7578 12.472 13.6775 12.7232 13.4364L16.0881 10.192C16.2589 10.0212 16.3593 9.84043 16.3593 9.58931C16.3593 9.11721 15.9776 8.78574 15.5156 8.78574C15.2845 8.78574 15.0535 8.87614 14.8928 9.05694L13.4866 10.5536L12.8638 11.2969L12.9441 9.80025V1.2623C12.9441 0.760071 12.5223 0.338196 11.9999 0.338196C11.4877 0.338196 11.0658 0.760071 11.0658 1.2623V9.80025L11.1361 11.2969L10.5133 10.5536L9.11714 9.05694C8.95642 8.87614 8.71535 8.78574 8.48432 8.78574C8.02227 8.78574 7.65062 9.11721 7.65062 9.58931C7.65062 9.84043 7.74102 10.0212 7.91178 10.192L11.2868 13.4364C11.5278 13.6775 11.7589 13.7578 11.9999 13.7578ZM3.40173 23.6619H20.5881C22.7678 23.6619 23.9028 22.5369 23.9028 20.3873V14.6317C23.9028 13.6172 23.7723 13.115 23.3102 12.4822L19.9754 7.97212C18.8102 6.38507 17.9966 5.62168 16.1584 5.62168H14.8024V7.269H16.2589C16.962 7.269 17.6651 7.85159 18.1071 8.44422L21.5223 13.2054C21.8638 13.6574 21.7432 13.8482 21.231 13.8482H15.2343C14.6517 13.8482 14.3906 14.25 14.3906 14.6819V14.7221C14.3906 15.8973 13.4765 17.163 11.9999 17.163C10.5234 17.163 9.60932 15.8973 9.60932 14.7221V14.6819C9.60932 14.25 9.34816 13.8482 8.76557 13.8482H2.76892C2.2466 13.8482 2.14615 13.6273 2.46758 13.2054L5.88276 8.44422C6.33477 7.85159 7.03789 7.269 7.74102 7.269H9.19749V5.62168H7.83142C5.99325 5.62168 5.18968 6.38507 4.0245 7.97212L0.679635 12.4822C0.217582 13.115 0.0970459 13.6172 0.0970459 14.6317V20.3873C0.0970459 22.5369 1.23209 23.6619 3.40173 23.6619Z" fill="white"/>
</svg>
