<svg width="24" height="24" viewBox="0 0 24 24" fill="none" xmlns="http://www.w3.org/2000/svg">
<path d="M1.25098 11.476C1.25098 11.933 1.60254 12.3285 2.16504 12.3285C2.4375 12.3285 2.68359 12.1791 2.90332 12.0033L11.6221 4.68201C11.8682 4.47107 12.1494 4.47107 12.3955 4.68201L21.1055 12.0033C21.3164 12.1791 21.5625 12.3285 21.835 12.3285C22.3535 12.3285 22.749 12.0033 22.749 11.4935C22.749 11.1947 22.6348 10.9574 22.4062 10.764L19.9365 8.68982V5.03357C19.9365 4.63806 19.6816 4.39197 19.2861 4.39197H18.0732C17.6865 4.39197 17.4229 4.63806 17.4229 5.03357V6.57166L13.2568 3.07361C12.4922 2.43201 11.5254 2.43201 10.7607 3.07361L1.60254 10.764C1.36523 10.9574 1.25098 11.2211 1.25098 11.476ZM4.10742 19.3773C4.10742 20.6429 4.89844 21.4076 6.20801 21.4076H17.8008C19.1016 21.4076 19.9014 20.6429 19.9014 19.3773V12.6976L12.5449 6.5365C12.2021 6.23767 11.7891 6.24646 11.4551 6.5365L4.10742 12.6976V19.3773ZM14.3115 19.7552H9.69727V14.1302C9.69727 13.7172 9.96973 13.4535 10.3828 13.4535H13.6348C14.0479 13.4535 14.3115 13.7172 14.3115 14.1302V19.7552Z" fill="white"/>
</svg>
