<svg width="100" height="39" viewBox="0 0 100 39" fill="none" xmlns="http://www.w3.org/2000/svg">
<path d="M28.6782 0H0V7.08724H12.0268V38.6576H20.7248V7.08724H23.6663C24.9549 4.4618 26.6303 2.0886 28.6782 0Z" fill="white"/>
<path fill-rule="evenodd" clip-rule="evenodd" d="M49.9861 38.6577C47.0385 38.6577 44.3039 38.1771 41.7824 37.216C39.2965 36.2549 37.1301 34.9023 35.2834 33.158C33.4722 31.4138 32.0517 29.367 31.0218 27.0177C30.0274 24.6683 29.5302 22.1054 29.5302 19.3288C29.5302 16.5523 30.0274 13.9894 31.0218 11.64C32.0517 9.29066 33.49 7.24387 35.3367 5.49964C37.1834 3.75542 39.3497 2.40275 41.8357 1.44165C44.3217 0.48055 47.0207 0 49.9329 0C52.8805 0 55.5795 0.48055 58.03 1.44165C60.516 2.40275 62.6645 3.75542 64.4757 5.49964C66.3225 7.24387 67.7608 9.29066 68.7907 11.64C69.8206 13.9538 70.3355 16.5167 70.3355 19.3288C70.3355 22.1054 69.8206 24.6861 68.7907 27.0711C67.7608 29.4204 66.3225 31.4672 64.4757 33.2114C62.6645 34.9201 60.516 36.2549 58.03 37.216C55.5795 38.1771 52.8982 38.6577 49.9861 38.6577ZM49.9329 31.2892C51.602 31.2892 53.1291 31.0045 54.5141 30.4349C55.9347 29.8654 57.1777 29.0467 58.2431 27.9788C59.3085 26.9109 60.1253 25.6472 60.6935 24.1878C61.2973 22.7283 61.5991 21.1087 61.5991 19.3288C61.5991 17.549 61.2973 15.9294 60.6935 14.4699C60.1253 13.0105 59.3085 11.7468 58.2431 10.6789C57.2132 9.61103 55.9879 8.79231 54.5674 8.22277C53.1468 7.65323 51.602 7.36845 49.9329 7.36845C48.2637 7.36845 46.7189 7.65323 45.2983 8.22277C43.9133 8.79231 42.688 9.61103 41.6226 10.6789C40.5572 11.7468 39.7226 13.0105 39.1189 14.4699C38.5507 15.9294 38.2666 17.549 38.2666 19.3288C38.2666 21.0731 38.5507 22.6927 39.1189 24.1878C39.7226 25.6472 40.5395 26.9109 41.5694 27.9788C42.6348 29.0467 43.8778 29.8654 45.2983 30.4349C46.7189 31.0045 48.2637 31.2892 49.9329 31.2892Z" fill="white"/>
<path d="M82.3623 7.08724L76.0595 6.9124C74.7828 4.35635 73.1366 2.04213 71.1342 0H82.8455C86.2102 0 89.1095 0.554809 91.5435 1.66443C93.9775 2.73825 95.8567 4.2953 97.1811 6.33557C98.5055 8.37583 99.1677 10.8098 99.1677 13.6376C99.1677 16.4295 98.5055 18.8456 97.1811 20.8859C95.8567 22.8904 93.9775 24.4295 91.5435 25.5033C91.4595 25.5404 91.3754 25.5769 91.2913 25.6127L100 38.6577H90.4697L83.3186 27.114H83.3131L79.028 20.1879H82.3623C85.0469 20.1879 87.0514 19.6152 88.3757 18.4698C89.7001 17.2886 90.3623 15.6778 90.3623 13.6376C90.3623 11.5615 89.7001 9.95078 88.3757 8.80536C87.0514 7.65995 85.0469 7.08724 82.3623 7.08724Z" fill="white"/>
</svg>
