<svg width="24" height="24" viewBox="0 0 24 24" fill="none" xmlns="http://www.w3.org/2000/svg">
<path d="M11.9949 22.3862C17.6902 22.3862 22.3911 17.6853 22.3911 12C22.3911 6.31472 17.6802 1.61383 11.9849 1.61383C6.29961 1.61383 1.60876 6.31472 1.60876 12C1.60876 17.6853 6.30966 22.3862 11.9949 22.3862ZM11.9849 13.6373C10.0161 13.6272 8.48934 11.9799 8.48934 9.80021C8.46926 7.75111 10.0262 6.04352 11.9849 6.04352C13.9436 6.04352 15.4804 7.75111 15.4804 9.80021C15.4804 11.9799 13.9536 13.6574 11.9849 13.6373ZM11.9849 20.6685C9.73488 20.6685 7.34426 19.7344 5.82751 18.1071C6.98265 16.3795 9.27283 15.375 11.9849 15.375C14.6668 15.375 16.9771 16.3594 18.1422 18.1071C16.6255 19.7344 14.2349 20.6685 11.9849 20.6685Z" fill="white"/>
</svg>
