<svg width="24" height="24" viewBox="0 0 24 24" fill="none" xmlns="http://www.w3.org/2000/svg">
<path d="M10.3276 18.1423C11.9247 18.1423 13.4214 17.6602 14.6669 16.8365L19.0665 21.2461C19.3578 21.5273 19.7294 21.668 20.1312 21.668C20.9649 21.668 21.5776 21.0151 21.5776 20.1914C21.5776 19.8097 21.447 19.4381 21.1658 19.1568L16.7964 14.7673C17.7004 13.4816 18.2328 11.9247 18.2328 10.2372C18.2328 5.88784 14.677 2.33203 10.3276 2.33203C5.98833 2.33203 2.42249 5.88784 2.42249 10.2372C2.42249 14.5865 5.97829 18.1423 10.3276 18.1423ZM10.3276 16.0329C7.14347 16.0329 4.53186 13.4213 4.53186 10.2372C4.53186 7.05301 7.14347 4.44141 10.3276 4.44141C13.5118 4.44141 16.1234 7.05301 16.1234 10.2372C16.1234 13.4213 13.5118 16.0329 10.3276 16.0329Z" fill="white"/>
</svg>
